Patient4_TMGait_0pt8_01_left_19_EMG.mot
version=1
nRows=40
nColumns=33
inDegrees=no
endheader
time	1LAddLong	2LGlutMax	3LGlutMed	4LIliopsoas	5LSemiMemb	6LBicFemLong	7LRecFem	8LVastMed	9LVastLat	10LGasMed	11LTibAnt	12lTibPost	13LPeroneusLong	14LSol	15LExtDigLong	16LFlexDigLong	17RAddLong	18RGlutMax	19RGlutMed	20RIliopsoas	21RSemiMemb	22RBicFemLong	23RRecFem	24RVastMed	25RVastLat	26RGasMed	27RTibAnt	28RTibPost	29RPeroneusLong	30RSol	31RExtDigLong	32RFlexDigLong
20.927	0.005035	0.4715	-0.076904	0.012817	-0.046692	0.094147	0.28397	0.013885	-0.26077	-0.045624	0.07309	-0.012207	-0.42862	-0.054321	0.35507	0.073242	0.04364	-0.099335	-0.34088	0.041199	-0.065002	-0.026245	0.96283	-0.00061	-0.047455	-0.02243	-0.11231	0.032501	0.3064	0.46997	-0.007629	0.00473
20.928	-0.001068	0.49591	-0.10223	0.019684	-0.055084	0.26825	0.29587	-0.000305	-0.020905	-0.10422	0.098572	-0.011444	0.014038	-0.18372	0.30151	0.072632	0.038757	-0.032196	-0.27115	0.014496	-0.069885	-0.037994	0.82718	-0.060272	-0.061951	-0.021362	0.062561	0.00885	-0.35629	-0.068817	-0.001831	-0.013733
20.929	-0.014343	0.52399	-0.25589	0.019989	-0.066833	0.14114	0.51727	-0.030823	-0.077209	-0.10971	0.025635	-0.006561	-0.18051	-0.37354	-0.2652	0.070496	0.024872	-0.044403	-0.33127	0.03067	-0.090027	-0.049591	0.66681	-0.15991	-0.056458	-0.01709	0.12894	-0.015106	-0.010223	-0.87128	-0.003052	-0.02121
20.93	-0.022125	0.61096	-0.16007	-0.002441	-0.086212	0.008392	0.6781	-0.021973	-0.16342	-0.084076	0.070801	-0.002594	0.1712	-0.50323	-0.14847	0.054932	-0.033112	0.048523	-0.60257	-0.035858	-0.10315	-0.054779	0.6839	-0.13657	-0.0737	-0.018158	0.13412	-0.063171	0.71274	-1.2689	-0.002441	-0.01358
20.931	-0.026093	0.63019	-0.015869	-0.017242	-0.12909	-0.48202	0.70252	-0.023041	-0.19012	-0.026093	0.052338	-0.005646	0.6871	-0.31372	0.10407	0.046844	-0.085297	0.11459	-0.65048	-0.043182	-0.12024	-0.072327	0.8316	-0.15305	-0.089569	-0.001678	0.090637	-0.055084	0.80582	-0.85297	-0.001221	-0.015259
20.932	-0.019379	0.68848	0.084534	0.008698	-0.081177	-0.52765	0.64102	-0.025482	-0.20416	-0.037537	-0.025635	-0.005035	0.89905	-0.042419	-0.003052	0.04364	-0.11627	0.14145	-0.22171	-0.069427	-0.112	-0.065765	0.97885	-0.13062	-0.096283	0.002136	0.015869	-0.021973	0.62012	-0.005798	-0.003357	-0.012665
20.933	-0.019379	0.73502	0.17792	0.005493	-0.083618	-0.52902	0.6218	-0.061951	-0.2475	-0.053711	-0.159	0.003967	0.044098	-0.15656	0.044708	0.053406	-0.14343	0.16052	-0.55878	-0.064697	-0.11154	-0.044556	1.0854	-0.091248	-0.093689	-0.00412	0.011749	-0.035553	0.17929	0.19424	-0.006866	-0.010986
20.934	-0.010529	0.7457	0.007172	-0.008545	-0.079346	-0.34866	0.53146	-0.006256	-0.2385	-0.046082	-0.18799	0.011139	-0.31586	0.068054	-0.29602	0.057068	-0.099182	0.14832	-0.71198	-0.094452	-0.10757	-0.051727	1.0408	-0.078583	-0.08255	0.005035	-0.029449	-0.026398	-0.016022	-0.005646	-0.003967	-0.012665
20.935	-0.014191	0.75989	-0.092621	-0.027313	-0.039825	-0.21149	0.52185	-0.007172	-0.22797	0.006866	-0.1471	0.018005	0.40787	0.032349	-0.62805	0.052948	-0.014496	0.17822	-0.634	-0.045624	-0.091858	-0.020294	1.015	-0.1091	-0.07431	0.001221	-0.043182	-0.024414	-0.38269	-0.019989	-0.006866	-0.019684
20.936	0.001373	0.80307	-0.15152	-0.012207	-0.01236	-0.036163	0.44067	-0.003662	-0.23926	0.11368	-0.02121	0.036469	-0.39825	-0.14221	-0.40009	0.050507	0.087738	0.2713	-0.32623	-0.063019	-0.062866	-0.018768	1.0149	-0.00412	-0.033875	0.006409	-0.083466	-0.03479	-0.5838	-0.056915	-0.007324	-0.001831
20.937	0.010681	0.79315	-0.21652	-0.010986	-0.011749	0.035095	0.3775	0.011749	-0.24002	0.14313	-0.070343	0.032196	-0.17212	-0.33981	-0.45166	0.050812	0.14099	0.29877	-0.2388	-0.000916	-0.039978	0.016479	0.86105	0.033264	-0.01236	0.015717	-0.16144	-0.22949	-0.50125	-0.02243	-0.007782	-0.009308
20.938	0.006561	0.72388	-0.24841	0.010986	0.018616	-0.058441	0.34378	0.021057	-0.24902	0.04776	-0.089417	0.026855	0.70572	-0.31326	-0.23636	0.040131	0.15381	0.30777	-0.48935	0.075836	-0.005341	0.046692	0.62714	0.057983	-0.025024	0.010071	-0.16113	-0.16266	-0.42404	0.002136	-0.006256	-0.010071
20.939	0.007019	0.63126	-0.00412	0.02243	0.039063	0.077209	0.31265	0.018158	-0.21423	-0.059509	0.036774	0.0354	-0.2861	-0.10834	-0.065918	0.048065	0.12177	0.3331	-0.66498	-0.036316	0.018768	0.095062	0.60898	0.061646	-0.011292	0.003967	-0.032043	0.046387	-0.58823	0.029755	-0.002747	-0.01709
20.94	-0.001373	0.62225	0.24002	0.016479	0.013428	0.076141	0.30807	-0.003815	-0.26108	-0.008545	0.037079	0.0354	-0.11643	0.11536	-0.14389	0.048676	0.1004	0.34546	-0.33966	-0.1683	0.044708	0.1355	0.91812	0.060272	-0.007782	0.013275	0.1828	0.14877	-0.14282	-0.19302	-0.001526	-0.009766
20.941	-0.017853	0.59967	0.20065	0.018768	-0.022125	0.066833	0.30701	0.020447	-0.31601	0.029449	-0.031586	0.008392	-0.36941	0.057983	-0.2153	0.043335	0.053253	0.28	-0.38818	0.000458	0.056458	0.14755	1.1531	0.12543	0.000458	0.014496	0.16388	0.04715	-0.18356	-0.27634	-0.002441	-0.007629
20.942	-0.026093	0.61218	0.076294	0.016632	-0.10498	0.22659	0.18158	0.029602	-0.23773	-0.081482	-0.081329	0.057983	-0.51804	-0.18356	-0.071564	0.00473	0.01358	0.27069	-0.8168	0.1001	0.058594	0.14526	1.3741	0.10849	-0.001831	0.014343	0.052338	-0.002289	-0.32761	-0.22751	-0.005493	-0.010376
20.943	-0.040894	0.61569	0.11185	0.032349	-0.18417	0.13977	0.011139	0.036163	-0.10513	-0.24139	-0.1181	0.056458	0.20172	-0.16357	0.077057	0.005951	-0.015259	0.28656	-0.76614	0.061188	0.065155	0.15289	1.3995	0.13962	0.027618	0.00946	-0.13138	0.006714	-0.26932	0.23132	-0.003204	-0.010986
20.944	-0.033722	0.62897	0.074768	0.039825	-0.25848	-0.012817	-0.21973	0.041199	0.000305	-0.23041	-0.068207	0.071106	-0.030823	-0.23254	0.20355	-0.00061	-0.057068	0.29205	-0.64255	0.10635	0.058746	0.13794	1.2021	0.1178	0.024414	0.00061	-0.20813	-0.18051	-0.63705	0.37399	-0.006866	-0.009308
20.945	-0.003815	0.61768	0.082855	0.007477	-0.16632	-0.1445	-0.44449	0.027161	0.15793	-0.13473	-0.018311	0.075531	-0.30548	-0.20706	0.29129	0.008698	-0.048523	0.29984	-0.90302	0.177	0.065155	0.12604	0.87524	0.1712	0.019989	-0.008545	-0.24719	-0.031281	0.024261	0.002136	-0.004272	-0.011902
20.946	0.024261	0.62851	0.048523	-0.00412	0.022736	-0.4068	-0.61859	0.026703	0.19638	-0.02594	-0.008087	0.087738	-0.3305	-0.31174	0.079041	0.003357	-0.011292	0.3714	-0.76706	0.050964	0.060883	0.076294	0.55527	0.094299	0.037689	-0.011902	-0.1712	-0.063477	0.2739	-0.12451	-0.005951	-0.002899
20.947	0.047302	0.63339	0.046082	0.007782	0.053864	-0.38086	-0.68695	0.000153	0.21103	-0.019379	-0.029449	0.088348	0.059662	-0.1709	0.10635	0.007477	0.035095	0.47913	-0.89706	-0.03418	0.047302	0.041809	0.34531	0.000763	-0.009003	0.008698	-0.1088	0.011139	0.87845	-0.092773	-0.009918	-0.000153
20.948	0.050507	0.67978	0.000153	0.014038	0.049133	-0.068512	-0.58548	-0.005798	-0.008392	-0.076294	-0.036469	0.080719	0.73212	-0.12604	0.16129	0.003967	0.031128	0.54138	-0.94009	0.033569	0.023041	0.011597	0.25574	-0.085144	-0.035858	-0.001678	-0.027008	0.092468	0.14175	-0.11597	-0.005188	-0.013733
20.949	0.037842	0.63126	0.016479	0.038147	0.02243	0.10559	-0.48355	-0.007477	-0.34241	-0.072479	-0.011749	0.10361	0.17151	0.103	0.72479	0.004272	0.072174	0.56397	-0.8725	0.03418	0.000305	-0.030823	0.38879	-0.18494	-0.057373	-0.007629	0.067291	0.074158	-0.44723	0.024261	-0.003662	-0.010986
20.95	0.021515	0.62805	0.14358	0.029144	0.003815	0.30975	-0.37476	-0.015411	-0.24658	-0.055542	0.15793	0.096893	0.094604	0.30884	0.5957	-0.000763	0.098572	0.60913	-0.83923	0.003052	-0.018616	-0.056458	0.52948	-0.18616	-0.057983	0.005646	-0.006256	-0.005341	-0.85419	0.11704	-0.010223	-0.024109
20.951	0.018921	0.73196	0.11826	-0.001221	-0.018311	0.31845	-0.336	-0.031433	-0.13107	-0.053406	0.20233	0.097504	0.24628	0.43518	0.14313	-0.022278	0.070496	0.62027	-0.77316	-0.054779	-0.038452	-0.099487	0.52826	-0.20004	-0.073853	-0.012817	0.018616	-0.023651	-1.0118	0.15243	-0.003052	-0.021515
20.952	0.014343	0.78171	0.022278	-0.038147	-0.038452	0.39703	-0.26398	-0.027008	-0.11108	-0.039673	0.14984	0.10086	0.33142	0.25909	-0.24323	-0.035095	0.050354	0.74036	-0.76599	-0.082397	-0.032043	-0.12833	0.68573	-0.17609	-0.067444	-0.010834	0.11505	0.005646	-0.82886	0.33997	-0.003815	-0.027466
20.953	0.018158	0.78369	-0.054779	-0.03479	-0.024567	0.52292	-0.14465	-0.032501	-0.069885	-0.044098	0.054932	0.10971	-0.42496	0.028076	-0.42923	-0.032654	0.049591	0.83908	-0.73486	-0.046997	-0.059814	-0.08606	0.84686	-0.092468	-0.081787	0.000305	0.22507	0.006256	-0.38864	-0.11032	-0.002136	-0.031586
20.954	0.022125	0.76675	-0.10666	-0.003357	-0.025787	-0.069885	-0.11795	-0.02182	-0.0354	-0.063782	0.049591	0.090027	-0.55115	0.050354	-0.46982	-0.019836	0.065918	0.8461	-0.62958	-0.028839	-0.0737	-0.058289	0.92773	-0.030975	-0.078278	-0.000458	0.12604	-0.040131	0.61172	-0.39734	-0.005341	-0.02182
20.955	0.020599	0.75623	0.000763	0.037537	-0.018768	-0.10346	-0.19959	-0.016022	-0.046997	-0.031433	0.06897	0.085602	-0.97717	0.22415	-0.3244	-0.03006	0.11932	0.85861	-0.62943	0.011292	-0.090027	-0.085144	1.0286	-0.10254	-0.090637	-0.007324	0.056763	-0.090485	0.6958	-0.31693	-0.006714	-0.024261
20.956	0.026093	0.70725	-0.004578	0.019836	-0.013123	0.0914	-0.27435	-0.017548	0.073547	0.010376	0.077209	0.070648	0.027618	0.17914	-0.082092	-0.042267	0.19486	0.91949	-0.7048	0.10315	-0.1178	-0.001373	1.0081	-0.103	-0.06134	-0.009155	-0.058136	0.002899	-0.03418	-0.29205	-0.005951	-0.018616
20.957	0.018616	0.6308	-0.14587	-0.000153	-0.02533	0.33539	-0.29144	0	0.21316	0.026245	0.1741	0.052338	0.4805	0.20935	-0.099945	-0.018921	0.19836	1.0078	-1.1557	0.19333	-0.13855	0.19836	0.86945	-0.12207	-0.050659	-0.012207	0.242	0.097046	-0.2832	-0.1976	-0.005341	-0.011902
20.958	0.019226	0.61981	-0.17868	-0.002747	-0.041046	0.45471	-0.32593	-0.02182	0.37521	0.12238	0.11459	0.049744	-0.048065	0.15533	1.0788	0.00351	0.14755	1.225	-0.68298	0.17105	-0.096436	0.16037	0.80719	-0.16632	-0.023499	-0.012207	0.12405	0.074005	-0.43961	0.022736	-0.005951	-0.012817
20.959	0.024719	0.62485	-0.21912	0.003052	-0.054016	0.31738	-0.42389	-0.029907	0.32272	0.1294	0.041962	0.028534	-0.0354	0.22949	0.89798	-0.006866	0.046082	1.2532	-0.65918	0.049744	-0.062408	0.053558	0.69321	-0.27466	-0.013275	-0.00824	0.15457	-0.25314	-0.42526	0.28564	-0.005493	-0.014496
20.96	0.020294	0.6311	-0.25971	0.031433	-0.05661	0.38681	-0.50568	-0.024872	0.18112	0.12589	-0.13825	0.017853	0.25467	0.22492	0.3479	-0.003204	-0.067749	1.2448	-0.65628	-0.097351	-0.054474	0.090637	0.60181	-0.2478	0.020142	0.005493	0.23071	-0.19241	-0.10071	-0.018768	-0.002747	-0.020142
20.961	0.016174	0.69488	-0.23727	0.024414	-0.035095	0.58044	-0.48141	-0.015411	0.3009	0.1297	-0.18265	0.00824	0.27023	0.036011	0.22003	0.000458	-0.11932	1.2509	-0.6163	-0.1857	-0.032043	0.15015	0.6279	-0.22308	0.019226	0.009918	0.14999	0.004272	0.30304	-0.24536	-0.003052	-0.02182
20.962	0.003052	0.699	-0.22339	-0.006714	-0.080109	0.5014	-0.27023	0.017242	0.18249	-0.021362	-0.019684	-0.007477	0.23285	-0.093689	0.12543	-0.01236	-0.1329	1.25	-0.77774	-0.23438	0.037994	0.07843	0.61356	-0.19989	0.016479	0.002441	-0.47104	0.042419	0.44144	-0.075073	-0.00412	-0.00885
20.963	0.007172	0.75638	-0.30624	0.005493	-0.059204	0.024872	-0.11856	0.026855	0.042419	-0.22659	0.18509	-0.019989	-0.45654	0.11581	0.13504	-0.006866	-0.14633	1.405	-1.1469	-0.26657	0.12268	0.080566	0.6131	-0.090637	0.036011	-0.000153	-0.83008	0.11826	0.3598	-0.103	-0.005951	-0.010376
20.964	-0.001678	0.75836	-0.31464	-0.010529	-0.092926	-0.32074	-0.26703	0.018768	-0.079956	-0.21118	0.20309	-0.041199	-0.30075	0.14191	-0.28046	0.003204	-0.17487	1.5985	-1.031	-0.16373	0.10483	0.1831	0.61752	-0.088348	-0.001068	-0.006561	-0.98175	0.013885	0.21194	-0.027008	-0.008392	-0.021057
20.965	0.010681	0.70206	-0.28809	-0.003357	-0.17349	-0.3508	-0.4158	0.005035	0.052338	-0.14618	-0.092163	-0.043488	0.46219	0.14008	-0.034637	-0.010071	-0.10498	1.8668	-1.0149	-0.004425	0.030518	0.16113	0.62607	-0.12833	-0.052032	-0.010681	-0.72403	0.027161	0.44205	0.040436	-0.00412	-0.022583
20.966	0.014648	0.63049	-0.27573	0.049286	-0.10468	-0.50537	-0.42435	-0.044403	0.099487	-0.043182	-0.10422	-0.058899	-0.37186	0.012207	-0.55237	-0.025024	-0.023499	2.0805	-1.0873	0.032806	0.006714	0.22705	0.58563	-0.079803	-0.04776	-0.010376	-0.38544	0.0383	0.40176	0.092621	-0.003815	-0.03418
